<svg xmlns="http://www.w3.org/2000/svg" width="800" height="450" viewBox="0 0 800 450">
  <defs>
    <linearGradient id="skyGrad" x1="0%" y1="0%" x2="0%" y2="100%">
      <stop offset="0%" style="stop-color:#0F766E;stop-opacity:1" />
      <stop offset="40%" style="stop-color:#0D9488;stop-opacity:1" />
      <stop offset="100%" style="stop-color:#14B8A6;stop-opacity:1" />
    </linearGradient>
    <linearGradient id="groundGrad" x1="0%" y1="0%" x2="0%" y2="100%">
      <stop offset="0%" style="stop-color:#115E59;stop-opacity:1" />
      <stop offset="100%" style="stop-color:#0F4C45;stop-opacity:1" />
    </linearGradient>
    <linearGradient id="buildingGrad" x1="0%" y1="0%" x2="0%" y2="100%">
      <stop offset="0%" style="stop-color:rgba(255,255,255,0.12);stop-opacity:1" />
      <stop offset="100%" style="stop-color:rgba(255,255,255,0.04);stop-opacity:1" />
    </linearGradient>
  </defs>
  <!-- Sky background -->
  <rect width="800" height="450" fill="url(#skyGrad)"/>
  <!-- Sun/warm glow -->
  <circle cx="650" cy="100" r="60" fill="rgba(255,255,255,0.06)"/>
  <circle cx="650" cy="100" r="40" fill="rgba(255,255,255,0.08)"/>
  <circle cx="650" cy="100" r="20" fill="rgba(255,255,255,0.1)"/>
  <!-- Ground plane -->
  <rect x="0" y="310" width="800" height="140" fill="url(#groundGrad)"/>
  <!-- Modern office campus (central building) -->
  <rect x="250" y="200" width="300" height="120" rx="4" fill="url(#buildingGrad)" stroke="rgba(255,255,255,0.08)" stroke-width="1"/>
  <!-- Glass facade lines -->
  <line x1="300" y1="200" x2="300" y2="320" stroke="rgba(255,255,255,0.05)" stroke-width="1"/>
  <line x1="350" y1="200" x2="350" y2="320" stroke="rgba(255,255,255,0.05)" stroke-width="1"/>
  <line x1="400" y1="200" x2="400" y2="320" stroke="rgba(255,255,255,0.05)" stroke-width="1"/>
  <line x1="450" y1="200" x2="450" y2="320" stroke="rgba(255,255,255,0.05)" stroke-width="1"/>
  <line x1="500" y1="200" x2="500" y2="320" stroke="rgba(255,255,255,0.05)" stroke-width="1"/>
  <!-- Floor lines -->
  <line x1="250" y1="240" x2="550" y2="240" stroke="rgba(255,255,255,0.04)" stroke-width="1"/>
  <line x1="250" y1="280" x2="550" y2="280" stroke="rgba(255,255,255,0.04)" stroke-width="1"/>
  <!-- Window reflections -->
  <rect x="260" y="210" width="30" height="20" rx="2" fill="rgba(255,255,255,0.08)"/>
  <rect x="310" y="210" width="30" height="20" rx="2" fill="rgba(255,255,255,0.1)"/>
  <rect x="360" y="210" width="30" height="20" rx="2" fill="rgba(255,255,255,0.08)"/>
  <rect x="410" y="210" width="30" height="20" rx="2" fill="rgba(255,255,255,0.06)"/>
  <rect x="460" y="210" width="30" height="20" rx="2" fill="rgba(255,255,255,0.08)"/>
  <rect x="510" y="210" width="30" height="20" rx="2" fill="rgba(255,255,255,0.1)"/>
  <rect x="260" y="250" width="30" height="20" rx="2" fill="rgba(255,255,255,0.06)"/>
  <rect x="310" y="250" width="30" height="20" rx="2" fill="rgba(255,255,255,0.08)"/>
  <rect x="360" y="250" width="30" height="20" rx="2" fill="rgba(255,255,255,0.1)"/>
  <rect x="410" y="250" width="30" height="20" rx="2" fill="rgba(255,255,255,0.08)"/>
  <rect x="460" y="250" width="30" height="20" rx="2" fill="rgba(255,255,255,0.06)"/>
  <rect x="510" y="250" width="30" height="20" rx="2" fill="rgba(255,255,255,0.08)"/>
  <rect x="260" y="290" width="30" height="15" rx="2" fill="rgba(255,255,255,0.08)"/>
  <rect x="310" y="290" width="30" height="15" rx="2" fill="rgba(255,255,255,0.06)"/>
  <rect x="360" y="290" width="30" height="15" rx="2" fill="rgba(255,255,255,0.08)"/>
  <rect x="410" y="290" width="30" height="15" rx="2" fill="rgba(255,255,255,0.1)"/>
  <rect x="460" y="290" width="30" height="15" rx="2" fill="rgba(255,255,255,0.08)"/>
  <rect x="510" y="290" width="30" height="15" rx="2" fill="rgba(255,255,255,0.06)"/>
  <!-- Entrance -->
  <rect x="380" y="295" width="40" height="25" rx="2" fill="rgba(255,255,255,0.12)" stroke="rgba(255,255,255,0.1)" stroke-width="1"/>
  <!-- Side building left -->
  <rect x="80" y="250" width="120" height="70" rx="3" fill="rgba(255,255,255,0.06)" stroke="rgba(255,255,255,0.05)" stroke-width="1"/>
  <rect x="90" y="260" width="20" height="15" rx="1" fill="rgba(255,255,255,0.06)"/>
  <rect x="120" y="260" width="20" height="15" rx="1" fill="rgba(255,255,255,0.08)"/>
  <rect x="150" y="260" width="20" height="15" rx="1" fill="rgba(255,255,255,0.06)"/>
  <rect x="90" y="290" width="20" height="15" rx="1" fill="rgba(255,255,255,0.08)"/>
  <rect x="120" y="290" width="20" height="15" rx="1" fill="rgba(255,255,255,0.06)"/>
  <rect x="150" y="290" width="20" height="15" rx="1" fill="rgba(255,255,255,0.08)"/>
  <!-- Side building right -->
  <rect x="600" y="240" width="120" height="80" rx="3" fill="rgba(255,255,255,0.06)" stroke="rgba(255,255,255,0.05)" stroke-width="1"/>
  <rect x="610" y="250" width="20" height="15" rx="1" fill="rgba(255,255,255,0.08)"/>
  <rect x="640" y="250" width="20" height="15" rx="1" fill="rgba(255,255,255,0.06)"/>
  <rect x="670" y="250" width="20" height="15" rx="1" fill="rgba(255,255,255,0.08)"/>
  <rect x="610" y="280" width="20" height="15" rx="1" fill="rgba(255,255,255,0.06)"/>
  <rect x="640" y="280" width="20" height="15" rx="1" fill="rgba(255,255,255,0.08)"/>
  <rect x="670" y="280" width="20" height="15" rx="1" fill="rgba(255,255,255,0.06)"/>
  <!-- Landscaping (trees as circles) -->
  <circle cx="230" cy="305" r="15" fill="rgba(255,255,255,0.06)"/>
  <rect x="228" y="305" width="4" height="15" fill="rgba(255,255,255,0.04)"/>
  <circle cx="570" cy="305" r="15" fill="rgba(255,255,255,0.06)"/>
  <rect x="568" y="305" width="4" height="15" fill="rgba(255,255,255,0.04)"/>
  <circle cx="60" cy="308" r="12" fill="rgba(255,255,255,0.05)"/>
  <circle cx="750" cy="306" r="14" fill="rgba(255,255,255,0.05)"/>
  <!-- Road/path -->
  <rect x="0" y="320" width="800" height="2" fill="rgba(255,255,255,0.08)"/>
  <!-- Parking area dots -->
  <rect x="100" y="335" width="8" height="12" rx="2" fill="rgba(255,255,255,0.04)"/>
  <rect x="115" y="335" width="8" height="12" rx="2" fill="rgba(255,255,255,0.04)"/>
  <rect x="130" y="335" width="8" height="12" rx="2" fill="rgba(255,255,255,0.04)"/>
  <rect x="660" y="335" width="8" height="12" rx="2" fill="rgba(255,255,255,0.04)"/>
  <rect x="675" y="335" width="8" height="12" rx="2" fill="rgba(255,255,255,0.04)"/>
  <rect x="690" y="335" width="8" height="12" rx="2" fill="rgba(255,255,255,0.04)"/>
  <!-- Text area -->
  <rect x="250" y="370" width="300" height="1" fill="rgba(255,255,255,0.15)"/>
  <text x="400" y="398" text-anchor="middle" font-family="'Inter','Segoe UI',system-ui,sans-serif" font-size="20" font-weight="700" fill="rgba(255,255,255,0.9)" letter-spacing="3">SUNNYVALE OFFICE</text>
  <text x="400" y="421" text-anchor="middle" font-family="'Literata','Georgia',serif" font-size="12" fill="rgba(255,255,255,0.5)">ArcaScience US Operations</text>
</svg>