<svg xmlns="http://www.w3.org/2000/svg" viewBox="0 0 600 340" width="600" height="340">
  <defs>
    <linearGradient id="bg" x1="0%" y1="0%" x2="100%" y2="100%">
      <stop offset="0%" style="stop-color:#2563EB"/>
      <stop offset="100%" style="stop-color:#1E40AF"/>
    </linearGradient>
  </defs>

  <!-- Background -->
  <rect width="600" height="340" fill="url(#bg)"/>

  <!-- EU stars circle -->
  <g transform="translate(470, 100)">
    <circle cx="0" cy="0" r="65" fill="rgba(255,255,255,0.04)" stroke="rgba(255,255,255,0.12)" stroke-width="1.5"/>
    <!-- 12 EU stars arranged in circle -->
    <g fill="rgba(255,255,255,0.35)">
      <!-- Star function: 5-pointed star at position -->
      <polygon points="0,-58 2,-52 8,-52 3,-48 5,-42 0,-46 -5,-42 -3,-48 -8,-52 -2,-52" transform="rotate(0)"/>
      <polygon points="0,-58 2,-52 8,-52 3,-48 5,-42 0,-46 -5,-42 -3,-48 -8,-52 -2,-52" transform="rotate(30)"/>
      <polygon points="0,-58 2,-52 8,-52 3,-48 5,-42 0,-46 -5,-42 -3,-48 -8,-52 -2,-52" transform="rotate(60)"/>
      <polygon points="0,-58 2,-52 8,-52 3,-48 5,-42 0,-46 -5,-42 -3,-48 -8,-52 -2,-52" transform="rotate(90)"/>
      <polygon points="0,-58 2,-52 8,-52 3,-48 5,-42 0,-46 -5,-42 -3,-48 -8,-52 -2,-52" transform="rotate(120)"/>
      <polygon points="0,-58 2,-52 8,-52 3,-48 5,-42 0,-46 -5,-42 -3,-48 -8,-52 -2,-52" transform="rotate(150)"/>
      <polygon points="0,-58 2,-52 8,-52 3,-48 5,-42 0,-46 -5,-42 -3,-48 -8,-52 -2,-52" transform="rotate(180)"/>
      <polygon points="0,-58 2,-52 8,-52 3,-48 5,-42 0,-46 -5,-42 -3,-48 -8,-52 -2,-52" transform="rotate(210)"/>
      <polygon points="0,-58 2,-52 8,-52 3,-48 5,-42 0,-46 -5,-42 -3,-48 -8,-52 -2,-52" transform="rotate(240)"/>
      <polygon points="0,-58 2,-52 8,-52 3,-48 5,-42 0,-46 -5,-42 -3,-48 -8,-52 -2,-52" transform="rotate(270)"/>
      <polygon points="0,-58 2,-52 8,-52 3,-48 5,-42 0,-46 -5,-42 -3,-48 -8,-52 -2,-52" transform="rotate(300)"/>
      <polygon points="0,-58 2,-52 8,-52 3,-48 5,-42 0,-46 -5,-42 -3,-48 -8,-52 -2,-52" transform="rotate(330)"/>
    </g>
    <!-- EMA text in center -->
    <text x="0" y="5" font-family="Inter, system-ui, sans-serif" font-size="16" font-weight="700" fill="rgba(255,255,255,0.25)" text-anchor="middle">EMA</text>
  </g>

  <!-- Template grid below -->
  <g transform="translate(370, 195)">
    <!-- Row 1 -->
    <rect x="0" y="0" width="65" height="45" rx="5" fill="rgba(255,255,255,0.07)" stroke="rgba(255,255,255,0.12)" stroke-width="1"/>
    <rect x="5" y="8" width="20" height="2" rx="1" fill="rgba(255,255,255,0.15)"/>
    <rect x="5" y="14" width="52" height="2" rx="1" fill="rgba(255,255,255,0.08)"/>
    <rect x="5" y="20" width="48" height="2" rx="1" fill="rgba(255,255,255,0.08)"/>
    <rect x="5" y="26" width="52" height="2" rx="1" fill="rgba(255,255,255,0.06)"/>
    <rect x="5" y="32" width="35" height="2" rx="1" fill="rgba(255,255,255,0.06)"/>

    <rect x="75" y="0" width="65" height="45" rx="5" fill="rgba(255,255,255,0.07)" stroke="rgba(255,255,255,0.12)" stroke-width="1"/>
    <rect x="80" y="8" width="20" height="2" rx="1" fill="rgba(255,255,255,0.15)"/>
    <rect x="80" y="14" width="52" height="2" rx="1" fill="rgba(255,255,255,0.08)"/>
    <rect x="80" y="20" width="48" height="2" rx="1" fill="rgba(255,255,255,0.08)"/>
    <rect x="80" y="26" width="52" height="2" rx="1" fill="rgba(255,255,255,0.06)"/>
    <rect x="80" y="32" width="40" height="2" rx="1" fill="rgba(255,255,255,0.06)"/>

    <rect x="150" y="0" width="65" height="45" rx="5" fill="rgba(255,255,255,0.07)" stroke="rgba(255,255,255,0.12)" stroke-width="1"/>
    <rect x="155" y="8" width="20" height="2" rx="1" fill="rgba(255,255,255,0.15)"/>
    <rect x="155" y="14" width="52" height="2" rx="1" fill="rgba(255,255,255,0.08)"/>
    <rect x="155" y="20" width="48" height="2" rx="1" fill="rgba(255,255,255,0.08)"/>
    <rect x="155" y="26" width="52" height="2" rx="1" fill="rgba(255,255,255,0.06)"/>
    <rect x="155" y="32" width="30" height="2" rx="1" fill="rgba(255,255,255,0.06)"/>

    <!-- Row 2 -->
    <rect x="0" y="55" width="65" height="45" rx="5" fill="rgba(255,255,255,0.05)" stroke="rgba(255,255,255,0.1)" stroke-width="1"/>
    <rect x="5" y="63" width="20" height="2" rx="1" fill="rgba(255,255,255,0.12)"/>
    <rect x="5" y="69" width="52" height="2" rx="1" fill="rgba(255,255,255,0.06)"/>
    <rect x="5" y="75" width="48" height="2" rx="1" fill="rgba(255,255,255,0.06)"/>
    <rect x="5" y="81" width="38" height="2" rx="1" fill="rgba(255,255,255,0.05)"/>

    <rect x="75" y="55" width="65" height="45" rx="5" fill="rgba(255,255,255,0.05)" stroke="rgba(255,255,255,0.1)" stroke-width="1"/>
    <rect x="80" y="63" width="20" height="2" rx="1" fill="rgba(255,255,255,0.12)"/>
    <rect x="80" y="69" width="52" height="2" rx="1" fill="rgba(255,255,255,0.06)"/>
    <rect x="80" y="75" width="48" height="2" rx="1" fill="rgba(255,255,255,0.06)"/>
    <rect x="80" y="81" width="42" height="2" rx="1" fill="rgba(255,255,255,0.05)"/>

    <rect x="150" y="55" width="65" height="45" rx="5" fill="rgba(255,255,255,0.05)" stroke="rgba(255,255,255,0.1)" stroke-width="1"/>
    <rect x="155" y="63" width="20" height="2" rx="1" fill="rgba(255,255,255,0.12)"/>
    <rect x="155" y="69" width="52" height="2" rx="1" fill="rgba(255,255,255,0.06)"/>
    <rect x="155" y="75" width="48" height="2" rx="1" fill="rgba(255,255,255,0.06)"/>
    <rect x="155" y="81" width="35" height="2" rx="1" fill="rgba(255,255,255,0.05)"/>
  </g>

  <!-- Category label -->
  <rect x="40" y="40" width="90" height="24" rx="12" fill="rgba(255,255,255,0.15)"/>
  <text x="85" y="56" font-family="Inter, system-ui, sans-serif" font-size="10" font-weight="700" fill="rgba(255,255,255,0.9)" text-anchor="middle" letter-spacing="1">TEMPLATES</text>

  <!-- Title -->
  <text x="40" y="115" font-family="Literata, Georgia, serif" font-size="26" font-weight="700" fill="#fff">EMA BRA</text>
  <text x="40" y="148" font-family="Literata, Georgia, serif" font-size="26" font-weight="700" fill="#fff">Templates</text>

  <!-- Subtitle -->
  <text x="40" y="184" font-family="Inter, system-ui, sans-serif" font-size="13" fill="rgba(255,255,255,0.7)">European Medicines Agency</text>
  <text x="40" y="202" font-family="Inter, system-ui, sans-serif" font-size="13" fill="rgba(255,255,255,0.7)">compliant BRA templates</text>

  <!-- Accent line -->
  <rect x="40" y="222" width="50" height="3" rx="1.5" fill="rgba(255,255,255,0.4)"/>

  <!-- Bottom bar -->
  <rect x="0" y="320" width="600" height="20" fill="rgba(0,0,0,0.15)"/>
  <text x="40" y="334" font-family="Inter, system-ui, sans-serif" font-size="10" font-weight="600" fill="rgba(255,255,255,0.6)" letter-spacing="0.5">ARCASCIENCE</text>
</svg>